<svg width="36" height="36" viewBox="0 0 36 36" fill="none" xmlns="http://www.w3.org/2000/svg">
<path d="M29.3312 20.5804H23.4396C20.5083 20.5804 19.0938 19.2242 19.0938 16.4242V6.50751C19.0938 3.70751 20.5229 2.35126 23.4396 2.35126H29.3312C32.2625 2.35126 33.6771 3.70751 33.6771 6.50751V16.4242C33.6771 19.2242 32.2479 20.5804 29.3312 20.5804ZM23.4396 4.53876C21.5875 4.53876 21.2812 5.03459 21.2812 6.50751V16.4242C21.2812 17.8971 21.5875 18.3929 23.4396 18.3929H29.3312C31.1833 18.3929 31.4896 17.8971 31.4896 16.4242V6.50751C31.4896 5.03459 31.1833 4.53876 29.3312 4.53876H23.4396Z" fill="#757575"/>
<path d="M29.3312 33.7054H23.4396C20.5083 33.7054 19.0938 32.3491 19.0938 29.5491V26.9241C19.0938 24.1241 20.5229 22.7679 23.4396 22.7679H29.3312C32.2625 22.7679 33.6771 24.1241 33.6771 26.9241V29.5491C33.6771 32.3491 32.2479 33.7054 29.3312 33.7054ZM23.4396 24.9554C21.5875 24.9554 21.2812 25.4512 21.2812 26.9241V29.5491C21.2812 31.022 21.5875 31.5179 23.4396 31.5179H29.3312C31.1833 31.5179 31.4896 31.022 31.4896 29.5491V26.9241C31.4896 25.4512 31.1833 24.9554 29.3312 24.9554H23.4396Z" fill="#757575"/>
<path d="M12.5605 33.7054H6.66883C3.73758 33.7054 2.323 32.3492 2.323 29.5492V19.6325C2.323 16.8325 3.75216 15.4763 6.66883 15.4763H12.5605C15.4917 15.4763 16.9063 16.8325 16.9063 19.6325V29.5492C16.9063 32.3492 15.4772 33.7054 12.5605 33.7054ZM6.66883 17.6638C4.81675 17.6638 4.5105 18.1596 4.5105 19.6325V29.5492C4.5105 31.0221 4.81675 31.5179 6.66883 31.5179H12.5605C14.4126 31.5179 14.7188 31.0221 14.7188 29.5492V19.6325C14.7188 18.1596 14.4126 17.6638 12.5605 17.6638H6.66883Z" fill="#757575"/>
<path d="M12.5605 13.2888H6.66883C3.73758 13.2888 2.323 11.9325 2.323 9.13251V6.50751C2.323 3.70751 3.75216 2.35126 6.66883 2.35126H12.5605C15.4917 2.35126 16.9063 3.70751 16.9063 6.50751V9.13251C16.9063 11.9325 15.4772 13.2888 12.5605 13.2888ZM6.66883 4.53876C4.81675 4.53876 4.5105 5.03459 4.5105 6.50751V9.13251C4.5105 10.6054 4.81675 11.1013 6.66883 11.1013H12.5605C14.4126 11.1013 14.7188 10.6054 14.7188 9.13251V6.50751C14.7188 5.03459 14.4126 4.53876 12.5605 4.53876H6.66883Z" fill="#757575"/>
</svg>
