<svg width="36" height="36" viewBox="0 0 36 36" fill="none" xmlns="http://www.w3.org/2000/svg">
<path d="M13.5811 32.6116H22.3311C29.6228 32.6116 32.5395 29.6949 32.5395 22.4033V13.6533C32.5395 6.36161 29.6228 3.44495 22.3311 3.44495H13.5811C6.28947 3.44495 3.3728 6.36161 3.3728 13.6533V22.4033C3.3728 29.6949 6.28947 32.6116 13.5811 32.6116Z" stroke="#757575" stroke-width="2" stroke-linecap="round" stroke-linejoin="round"/>
<path d="M3.3728 19.0494L12.1228 19.0202C12.7033 19.0498 13.2646 19.2382 13.7454 19.5647C14.2263 19.8913 14.6083 20.3436 14.8499 20.8723L16.5124 25.0723C16.8916 26.0202 17.4895 26.0202 17.8686 25.0723L21.2082 16.5994C21.5291 15.7827 22.127 15.7535 22.5353 16.5264L24.052 19.3994C24.322 19.8505 24.6985 20.2286 25.1485 20.5007C25.5985 20.7727 26.1082 20.9303 26.6332 20.9598H32.5541" stroke="#757575" stroke-width="2" stroke-linecap="round" stroke-linejoin="round"/>
</svg>
