<svg width="36" height="36" viewBox="0 0 36 36" fill="none" xmlns="http://www.w3.org/2000/svg">
<path d="M27.2165 19.1227H22.3749C18.7436 19.1227 16.9061 17.0665 16.9061 12.9977V8.81231C16.8108 7.93667 16.9162 7.05082 17.2144 6.22201C17.5126 5.3932 17.9956 4.64321 18.627 4.02898C19.9249 3.06647 21.7915 2.99356 24.5478 3.79564C26.362 4.34596 28.0125 5.33522 29.3531 6.67578C30.6936 8.01635 31.6829 9.66684 32.2332 11.4811C33.0353 14.2227 32.9624 16.104 31.9999 17.3873C31.3885 18.0233 30.6393 18.5105 29.81 18.8113C28.9808 19.1122 28.0935 19.2187 27.2165 19.1227ZM21.3249 5.43335C20.8423 5.40053 20.3618 5.52319 19.954 5.78335C19.3853 6.20627 19.1082 7.19793 19.1082 8.81668V13.0167C19.1082 16.2833 20.3624 16.9542 22.3895 16.9542H27.2311C28.8353 16.9542 29.827 16.6771 30.2645 16.1083C30.7749 15.4375 30.7311 14.0959 30.1624 12.1271C29.7073 10.6699 28.9057 9.34476 27.8263 8.2653C26.7468 7.18583 25.4217 6.38422 23.9645 5.92918C23.1134 5.63652 22.2242 5.46948 21.3249 5.43335Z" fill="#757575"/>
<path d="M16.6437 33.7061C13.09 33.7011 9.66456 32.3777 7.03062 29.9922C4.39668 27.6066 2.7416 24.3285 2.38584 20.7927C2.03008 17.2569 2.99895 13.7148 5.10485 10.8523C7.21075 7.98986 10.3039 6.0106 13.7853 5.29777C14.0693 5.24131 14.364 5.2982 14.6066 5.45627C14.8492 5.61434 15.0202 5.86104 15.0832 6.14361C15.1397 6.42756 15.0828 6.72234 14.9247 6.96489C14.7667 7.20744 14.52 7.37852 14.2374 7.44152C12.0834 7.88432 10.0897 8.90255 8.46814 10.388C6.84662 11.8734 5.65794 13.7704 5.02846 15.8774C4.39899 17.9845 4.35226 20.2227 4.89324 22.3541C5.43423 24.4856 6.5427 26.4306 8.10081 27.9824C9.65892 29.5342 11.6084 30.6347 13.7421 31.1671C15.8757 31.6994 18.1137 31.6435 20.2182 31.0055C22.3226 30.3675 24.2148 29.1711 25.6936 27.5435C27.1724 25.916 28.1825 23.9181 28.6166 21.7624C28.6727 21.4781 28.8394 21.2277 29.08 21.0664C29.1992 20.9865 29.3329 20.9308 29.4736 20.9026C29.6143 20.8744 29.7591 20.8742 29.8999 20.9019C30.0407 20.9297 30.1746 20.9849 30.294 21.0645C30.4134 21.144 30.516 21.2462 30.5959 21.3654C30.6758 21.4846 30.7314 21.6183 30.7597 21.759C30.7879 21.8997 30.7881 22.0445 30.7603 22.1853C30.1021 25.4416 28.3357 28.3692 25.7619 30.4697C23.1881 32.5703 19.9658 33.714 16.6437 33.7061Z" fill="#757575"/>
</svg>
