<svg width="192" height="187" viewBox="0 0 192 187" fill="none" xmlns="http://www.w3.org/2000/svg">
<path d="M155.235 185.63H43.2349C37.3949 185.63 31.7449 181.1 30.6249 175.51L1.19493 29.22C0.0749292 23.63 3.89491 19.1 9.73491 19.1H121.735C127.575 19.1 133.225 23.63 134.345 29.22L163.745 175.51C164.905 181.14 161.075 185.63 155.235 185.63Z" fill="black" stroke="black" stroke-linejoin="round"/>
<path d="M157.935 183.07H45.9349C40.0949 183.07 34.4549 178.54 33.3249 172.95L3.92491 26.66C2.80491 21.07 6.62489 16.54 12.4649 16.54H124.465C130.305 16.54 135.945 21.07 137.075 26.66L166.475 172.95C167.605 178.54 163.775 183.07 157.935 183.07Z" fill="#5F93AF" stroke="black" stroke-linejoin="round"/>
<path d="M43.9849 173.5C43.8261 173.495 43.6733 173.438 43.549 173.339C43.4247 173.24 43.3356 173.104 43.2949 172.95L13.8949 26.66C13.8794 26.5923 13.8798 26.5219 13.896 26.4544C13.9122 26.3869 13.9438 26.3241 13.9883 26.2708C14.0329 26.2175 14.0892 26.1753 14.1528 26.1474C14.2164 26.1195 14.2856 26.1067 14.3549 26.11H126.355C126.514 26.1138 126.668 26.1696 126.792 26.2689C126.917 26.3682 127.006 26.5056 127.045 26.66L156.445 172.95C156.46 173.018 156.46 173.088 156.444 173.156C156.428 173.223 156.396 173.286 156.352 173.339C156.307 173.392 156.251 173.435 156.187 173.463C156.123 173.491 156.054 173.503 155.985 173.5H43.9849Z" fill="black" stroke="black" stroke-linejoin="round"/>
<path d="M79.3549 20.4H59.0949L57.0949 10.7C56.0149 5.34001 59.685 1 65.275 1C68.0756 1.06101 70.7777 2.04484 72.962 3.79877C75.1463 5.5527 76.6905 7.97864 77.3549 10.7L79.3549 20.4Z" fill="white" stroke="black" stroke-linejoin="round"/>
<path d="M190.675 154.67H77.5049C46.2049 132.81 29.0749 81.38 13.7849 26.11H126.965C141.485 79.14 160.395 125.55 190.675 154.67Z" fill="#FEFAEE" stroke="black" stroke-linejoin="round"/>
<path d="M113.975 31.2H28.825L24.485 9.59998H109.635L113.975 31.2Z" fill="#FFCC5F" stroke="black" stroke-linejoin="round"/>
<path d="M100.802 134.357C102.846 130.211 98.6196 123.95 91.3624 120.372C84.1052 116.795 76.5653 117.256 74.5214 121.403C72.4776 125.549 76.7039 131.81 83.9611 135.387C91.2183 138.965 98.7583 138.503 100.802 134.357Z" fill="#5F93AF" stroke="#5F93AF" stroke-linejoin="round"/>
<path d="M35.715 48.98H120.105" stroke="black" stroke-linejoin="round"/>
<path d="M41.9249 66.76H126.315" stroke="black" stroke-linejoin="round"/>
<path d="M48.125 84.54H132.515" stroke="black" stroke-linejoin="round"/>
</svg>
