<svg width="36" height="36" viewBox="0 0 36 36" fill="none" xmlns="http://www.w3.org/2000/svg">
<path d="M21.9376 33.705H14.0626C6.8584 33.705 3.7959 30.6279 3.7959 23.4384V16.8904C3.79781 16.601 3.91366 16.3239 4.11836 16.1192C4.32307 15.9145 4.60016 15.7986 4.88965 15.7967C5.17914 15.7986 5.45623 15.9145 5.66093 16.1192C5.86564 16.3239 5.98149 16.601 5.9834 16.8904V23.4384C5.9834 29.4029 8.09798 31.5175 14.0626 31.5175H21.923C27.8876 31.5175 30.0021 29.4029 30.0021 23.4384V16.8904C30.0021 16.6004 30.1174 16.3222 30.3225 16.117C30.5276 15.9119 30.8058 15.7967 31.0959 15.7967C31.386 15.7967 31.6642 15.9119 31.8693 16.117C32.0744 16.3222 32.1896 16.6004 32.1896 16.8904V23.4384C32.2042 30.6279 29.1271 33.705 21.9376 33.705Z" fill="#757575"/>
<path d="M17.9999 19.1221C17.229 19.1359 16.4642 18.9844 15.7568 18.6777C15.0495 18.371 14.416 17.9163 13.8992 17.3442C13.3824 16.7721 12.9942 16.0959 12.7607 15.3611C12.5272 14.6264 12.4539 13.8501 12.5457 13.0846L13.5228 3.34293C13.5508 3.0719 13.678 2.82076 13.8799 2.63774C14.0817 2.45472 14.3441 2.3527 14.6166 2.35127H21.427C21.7002 2.35008 21.964 2.45119 22.1664 2.63472C22.3688 2.81825 22.4952 3.07089 22.5207 3.34293L23.4978 13.0846C23.5853 13.8499 23.5096 14.6251 23.2759 15.3591C23.0421 16.093 22.6555 16.7692 22.1416 17.3429C21.6126 17.9108 20.9711 18.3623 20.2581 18.6686C19.545 18.975 18.7759 19.1294 17.9999 19.1221ZM15.5936 4.53877L14.7186 13.3034C14.6621 13.7636 14.7045 14.2306 14.8428 14.6732C14.9811 15.1158 15.2122 15.5238 15.5207 15.87C15.8459 16.1963 16.2323 16.4552 16.6577 16.6319C17.0831 16.8085 17.5392 16.8994 17.9999 16.8994C18.4605 16.8994 18.9167 16.8085 19.3421 16.6319C19.7675 16.4552 20.1539 16.1963 20.4791 15.87C20.7857 15.5227 21.0157 15.1145 21.1539 14.6722C21.2921 14.23 21.3355 13.7635 21.2811 13.3034L20.4061 4.53877H15.5936Z" fill="#757575"/>
<path d="M27.202 19.1221C25.7389 19.0941 24.3352 18.5386 23.2492 17.5579C22.1631 16.5772 21.4679 15.2372 21.2913 13.7846L20.2705 3.56167C20.2574 3.40895 20.2755 3.25516 20.3239 3.10971C20.3723 2.96427 20.4499 2.83024 20.552 2.71584C20.6538 2.59985 20.7795 2.50723 20.9205 2.4443C21.0614 2.38138 21.2143 2.34964 21.3686 2.35126H25.8122C30.0997 2.35126 32.0976 4.14501 32.6955 8.54917L33.1038 12.6033C33.1992 13.4306 33.1169 14.2687 32.8624 15.0616C32.6078 15.8545 32.1869 16.5838 31.6277 17.201C31.0686 17.8181 30.3842 18.3087 29.6202 18.64C28.8562 18.9713 28.0302 19.1357 27.1976 19.1221H27.202ZM22.579 4.53876L23.4788 13.5658C23.5988 14.4778 24.0392 15.3174 24.7212 15.9345C25.4033 16.5516 26.2826 16.9061 27.202 16.9346C27.73 16.9516 28.2554 16.8538 28.7418 16.6477C29.2282 16.4416 29.664 16.1323 30.0191 15.7412C30.3742 15.3501 30.64 14.8864 30.7982 14.3824C30.9564 13.8784 31.0032 13.346 30.9353 12.8221L30.527 8.81167C30.0749 5.51584 29.0103 4.53876 25.8122 4.53876H22.579Z" fill="#757575"/>
<path d="M8.72504 19.1221C7.89241 19.1357 7.06647 18.9713 6.30247 18.64C5.53847 18.3087 4.85402 17.8181 4.29489 17.201C3.73575 16.5838 3.31483 15.8545 3.06027 15.0616C2.80571 14.2687 2.72338 13.4306 2.81879 12.6033L3.21254 8.59293C3.82504 4.14501 5.82296 2.35126 10.1105 2.35126H14.5584C14.7123 2.35258 14.8642 2.38564 15.0047 2.44837C15.1453 2.51111 15.2713 2.60216 15.375 2.71584C15.4792 2.8287 15.5579 2.96265 15.6057 3.10859C15.6535 3.25454 15.6693 3.40906 15.6521 3.56167L14.6313 13.7846C14.4549 15.2365 13.7602 16.5759 12.6751 17.5565C11.59 18.5371 10.1873 19.0931 8.72504 19.1221ZM10.1105 4.53876C6.91671 4.53876 5.85212 5.50126 5.38546 8.84084L4.99171 12.8221C4.92381 13.346 4.97058 13.8784 5.12877 14.3824C5.28696 14.8864 5.5528 15.3501 5.90787 15.7412C6.26295 16.1323 6.69879 16.4417 7.18522 16.6477C7.67165 16.8538 8.19704 16.9517 8.72504 16.9346C9.64436 16.9074 10.5239 16.5533 11.2055 15.9358C11.8871 15.3183 12.3262 14.478 12.4438 13.5658L13.348 4.53876H10.1105Z" fill="#757575"/>
<path d="M21.6459 33.7048H14.3542C14.0647 33.7028 13.7876 33.587 13.5829 33.3823C13.3782 33.1776 13.2623 32.9005 13.2604 32.611V28.9652C13.1851 28.3246 13.2558 27.6752 13.4674 27.0659C13.6789 26.4566 14.0258 25.9031 14.4819 25.447C14.9379 24.9909 15.4914 24.6441 16.1008 24.4325C16.7101 24.221 17.3594 24.1502 18 24.2256C18.6406 24.1502 19.29 24.221 19.8993 24.4325C20.5086 24.6441 21.0621 24.9909 21.5182 25.447C21.9743 25.9031 22.3211 26.4566 22.5327 27.0659C22.7442 27.6752 22.815 28.3246 22.7396 28.9652V32.611C22.7377 32.9005 22.6218 33.1776 22.4171 33.3823C22.2124 33.587 21.9353 33.7028 21.6459 33.7048ZM15.4479 31.5173H20.5521V28.9652C20.5521 27.1277 19.8375 26.4131 18 26.4131C16.1625 26.4131 15.4479 27.1277 15.4479 28.9652V31.5173Z" fill="#757575"/>
</svg>
