<svg width="36" height="36" viewBox="0 0 36 36" fill="none" xmlns="http://www.w3.org/2000/svg">
<path d="M28.8208 17.6637H23.8333C23.5438 17.6618 23.2667 17.5459 23.062 17.3412C22.8573 17.1365 22.7414 16.8594 22.7395 16.5699V6.3762C22.7418 5.30941 23.1666 4.28698 23.921 3.53264C24.6753 2.77831 25.6977 2.35351 26.7645 2.3512L26.7791 2.3512C28.6091 2.36122 30.3608 3.09565 31.6507 4.39381C32.9407 5.69197 33.664 7.44819 33.6624 9.27828V12.8074C33.7025 13.4544 33.6049 14.1024 33.376 14.7088C33.1471 15.3152 32.7921 15.8661 32.3344 16.3251C31.8768 16.7842 31.327 17.1408 30.7213 17.3716C30.1156 17.6023 29.4678 17.7019 28.8208 17.6637ZM24.927 15.4762H28.8208C29.1803 15.5129 29.5435 15.4691 29.8839 15.348C30.2244 15.2269 30.5337 15.0315 30.7892 14.7759C31.0448 14.5204 31.2402 14.2111 31.3613 13.8706C31.4824 13.5302 31.5262 13.167 31.4895 12.8074V9.27828C31.4875 8.0214 30.9896 6.81607 30.1041 5.92411C29.2159 5.05084 28.0246 4.55448 26.7791 4.5387H26.7645C26.5233 4.53882 26.2845 4.58655 26.0618 4.67914C25.839 4.77174 25.6368 4.90737 25.4666 5.07828C25.2946 5.24765 25.1582 5.44975 25.0655 5.67267C24.9729 5.89558 24.9258 6.13479 24.927 6.3762V15.4762Z" fill="#757575"/>
<path d="M13.6251 34.5512C13.288 34.5537 12.954 34.4878 12.6432 34.3575C12.3323 34.2271 12.0512 34.035 11.8168 33.7929L9.39592 31.3574C9.33366 31.2937 9.24989 31.2554 9.16093 31.25C9.07196 31.2446 8.98418 31.2725 8.91467 31.3283L6.40634 33.1949C6.02747 33.4805 5.57644 33.6546 5.10401 33.6977C4.63157 33.7409 4.15646 33.6513 3.73214 33.4392C3.30782 33.227 2.95112 32.9007 2.70218 32.4968C2.45323 32.093 2.32192 31.6277 2.323 31.1533V9.27828C2.323 4.87411 4.84592 2.3512 9.25009 2.3512H26.7501C27.0396 2.35311 27.3167 2.46895 27.5214 2.67366C27.7261 2.87837 27.8419 3.15546 27.8438 3.44495C27.8419 3.73444 27.7261 4.01153 27.5214 4.21623C27.3167 4.42094 27.0396 4.53679 26.7501 4.5387C26.2666 4.5387 25.803 4.73075 25.4611 5.07262C25.1192 5.41448 24.9272 5.87815 24.9272 6.36161V31.1533C24.9272 31.6274 24.7955 32.0921 24.5469 32.4957C24.2982 32.8994 23.9423 33.226 23.5189 33.4392C23.0955 33.6525 22.6212 33.7439 22.1488 33.7033C21.6765 33.6628 21.2247 33.4918 20.8438 33.2095L18.3501 31.3429C18.282 31.2902 18.1971 31.2642 18.1113 31.2696C18.0254 31.2749 17.9444 31.3113 17.8834 31.372L15.4334 33.822C14.949 34.2919 14.3 34.5536 13.6251 34.5512ZM9.11884 29.0679C9.45814 29.0647 9.79456 29.1303 10.1079 29.2606C10.4211 29.3909 10.7048 29.5833 10.9418 29.8262L13.3626 32.2616C13.4342 32.3274 13.5279 32.3639 13.6251 32.3639C13.7223 32.3639 13.816 32.3274 13.8876 32.2616L16.3376 29.8116C16.7729 29.3762 17.3518 29.1139 17.9662 29.0736C18.5806 29.0334 19.1887 29.2179 19.6772 29.5929L22.1563 31.4449C22.2091 31.4878 22.2736 31.5136 22.3414 31.5188C22.4091 31.524 22.4768 31.5084 22.5355 31.4741C22.5959 31.4447 22.6469 31.3992 22.6829 31.3426C22.719 31.2859 22.7386 31.2204 22.7397 31.1533V6.36161C22.7392 5.72791 22.8891 5.10314 23.1772 4.5387H9.25009C6.01259 4.5387 4.5105 6.04078 4.5105 9.27828V31.1533C4.50951 31.2227 4.52814 31.2911 4.56426 31.3504C4.60038 31.4097 4.65252 31.4577 4.71467 31.4887C4.77504 31.52 4.84338 31.5326 4.91094 31.5248C4.9785 31.517 5.04219 31.4892 5.09384 31.4449L7.58759 29.5783C8.03013 29.2485 8.56692 29.0695 9.11884 29.0679Z" fill="#757575"/>
<path d="M18 20.595H13.625C13.3355 20.5931 13.0584 20.4772 12.8537 20.2725C12.649 20.0678 12.5332 19.7907 12.5312 19.5012C12.5332 19.2117 12.649 18.9346 12.8537 18.7299C13.0584 18.5252 13.3355 18.4094 13.625 18.4075H18C18.2895 18.4094 18.5666 18.5252 18.7713 18.7299C18.976 18.9346 19.0918 19.2117 19.0938 19.5012C19.0918 19.7907 18.976 20.0678 18.7713 20.2725C18.5666 20.4772 18.2895 20.5931 18 20.595Z" fill="#757575"/>
<path d="M18 14.7616H13.625C13.3355 14.7597 13.0584 14.6438 12.8537 14.4391C12.649 14.2344 12.5332 13.9573 12.5312 13.6678C12.5332 13.3784 12.649 13.1013 12.8537 12.8966C13.0584 12.6919 13.3355 12.576 13.625 12.5741H18C18.2895 12.576 18.5666 12.6919 18.7713 12.8966C18.976 13.1013 19.0918 13.3784 19.0938 13.6678C19.0918 13.9573 18.976 14.2344 18.7713 14.4391C18.5666 14.6438 18.2895 14.7597 18 14.7616Z" fill="#757575"/>
<path d="M9.20614 15.1263C8.91771 15.1263 8.63575 15.0407 8.39593 14.8805C8.15611 14.7202 7.96919 14.4925 7.85881 14.226C7.74843 13.9595 7.71955 13.6663 7.77582 13.3834C7.83209 13.1005 7.97099 12.8407 8.17494 12.6367C8.37889 12.4328 8.63874 12.2939 8.92163 12.2376C9.20452 12.1813 9.49774 12.2102 9.76422 12.3206C10.0307 12.431 10.2585 12.6179 10.4187 12.8577C10.5789 13.0975 10.6645 13.3795 10.6645 13.6679C10.6645 14.0547 10.5108 14.4256 10.2373 14.6991C9.96384 14.9726 9.59291 15.1263 9.20614 15.1263Z" fill="#757575"/>
<path d="M9.20614 20.9595C8.91771 20.9595 8.63575 20.874 8.39593 20.7137C8.15611 20.5535 7.96919 20.3257 7.85881 20.0593C7.74843 19.7928 7.71955 19.4996 7.77582 19.2167C7.83209 18.9338 7.97099 18.6739 8.17494 18.47C8.37889 18.266 8.63874 18.1271 8.92163 18.0709C9.20452 18.0146 9.49774 18.0435 9.76422 18.1539C10.0307 18.2642 10.2585 18.4512 10.4187 18.691C10.5789 18.9308 10.6645 19.2127 10.6645 19.5012C10.6645 19.888 10.5108 20.2589 10.2373 20.5324C9.96384 20.8059 9.59291 20.9595 9.20614 20.9595Z" fill="#757575"/>
</svg>
