<svg width="36" height="36" viewBox="0 0 36 36" fill="none" xmlns="http://www.w3.org/2000/svg">
<path d="M20.0415 25.9325H16.3811C15.2113 25.9107 14.098 25.4253 13.2859 24.5831C12.4738 23.7409 12.0292 22.6107 12.0499 21.4409C12.0518 21.1514 12.1676 20.8743 12.3723 20.6696C12.577 20.4649 12.8541 20.349 13.1436 20.3471C13.4331 20.349 13.7102 20.4649 13.9149 20.6696C14.1196 20.8743 14.2355 21.1514 14.2374 21.4409C14.2181 22.0302 14.4326 22.6032 14.8342 23.0349C15.2359 23.4666 15.792 23.7219 16.3811 23.745H20.0415C20.5177 23.7234 20.9664 23.5157 21.291 23.1666C21.6156 22.8175 21.7901 22.3549 21.777 21.8784C21.777 20.6096 21.3249 20.3617 20.5811 20.0992L14.704 18.0284C13.8778 17.8024 13.1575 17.2927 12.6695 16.5887C12.1815 15.8847 11.957 15.0314 12.0353 14.1784C12.0185 13.1207 12.4223 12.0997 13.1578 11.3395C13.8934 10.5793 14.9006 10.1422 15.9582 10.1242H19.6186C20.7884 10.1461 21.9017 10.6314 22.7139 11.4736C23.526 12.3159 23.9706 13.446 23.9499 14.6159C23.9499 14.906 23.8346 15.1842 23.6295 15.3893C23.4244 15.5944 23.1462 15.7096 22.8561 15.7096C22.566 15.7096 22.2878 15.5944 22.0827 15.3893C21.8776 15.1842 21.7624 14.906 21.7624 14.6159C21.7817 14.0266 21.5671 13.4535 21.1655 13.0219C20.7639 12.5902 20.2078 12.3349 19.6186 12.3117H15.9582C15.482 12.3333 15.0333 12.541 14.7088 12.8902C14.3842 13.2393 14.2097 13.7019 14.2228 14.1784C14.2228 15.4471 14.6749 15.695 15.4186 15.9575L21.2957 18.0284C22.122 18.2544 22.8422 18.764 23.3302 19.468C23.8182 20.172 24.0428 21.0254 23.9645 21.8784C23.9762 22.9346 23.5709 23.9528 22.8364 24.7118C22.1019 25.4709 21.0976 25.9096 20.0415 25.9325Z" fill="#757575"/>
<path d="M18 27.8721C17.7105 27.8702 17.4334 27.7543 17.2287 27.5496C17.024 27.3449 16.9082 27.0678 16.9062 26.7783V9.27832C16.9082 8.98883 17.024 8.71174 17.2287 8.50703C17.4334 8.30233 17.7105 8.18648 18 8.18457C18.2895 8.18648 18.5666 8.30233 18.7713 8.50703C18.976 8.71174 19.0918 8.98883 19.0938 9.27832V26.7783C19.0918 27.0678 18.976 27.3449 18.7713 27.5496C18.5666 27.7543 18.2895 27.8702 18 27.8721Z" fill="#757575"/>
<path d="M22.3751 33.7054H13.6251C5.70633 33.7054 2.323 30.3221 2.323 22.4033V13.6533C2.323 5.73459 5.70633 2.35126 13.6251 2.35126H22.3751C30.2938 2.35126 33.6772 5.73459 33.6772 13.6533V22.4033C33.6772 30.3221 30.2938 33.7054 22.3751 33.7054ZM13.6251 4.53876C6.90216 4.53876 4.5105 6.93042 4.5105 13.6533V22.4033C4.5105 29.1263 6.90216 31.5179 13.6251 31.5179H22.3751C29.098 31.5179 31.4897 29.1263 31.4897 22.4033V13.6533C31.4897 6.93042 29.098 4.53876 22.3751 4.53876H13.6251Z" fill="#757575"/>
</svg>
