<svg width="36" height="36" viewBox="0 0 36 36" fill="none" xmlns="http://www.w3.org/2000/svg">
<path d="M15.2439 26.9966H9.7168C9.42731 26.9947 9.15022 26.8788 8.94551 26.6741C8.74081 26.4694 8.62496 26.1923 8.62305 25.9028V18.4362C8.62688 17.7064 8.9185 17.0075 9.43457 16.4915C9.95064 15.9754 10.6495 15.6838 11.3793 15.6799H15.2439C15.5334 15.6818 15.8105 15.7977 16.0152 16.0024C16.2199 16.2071 16.3357 16.4842 16.3376 16.7737V25.8883C16.3384 26.1799 16.2239 26.4601 16.019 26.6677C15.8142 26.8753 15.5355 26.9935 15.2439 26.9966ZM10.8105 24.8091H14.1501V17.882H11.3793C11.2285 17.882 11.0838 17.9419 10.9771 18.0486C10.8705 18.1553 10.8105 18.2999 10.8105 18.4508V24.8091Z" fill="#757575"/>
<path d="M20.7563 26.9965H15.2292C14.9398 26.9945 14.6627 26.8787 14.458 26.674C14.2533 26.4693 14.1374 26.1922 14.1355 25.9027V11.8152C14.1393 11.0854 14.4309 10.3865 14.947 9.87048C15.4631 9.35441 16.1619 9.06279 16.8917 9.05896H19.1084C19.8382 9.06279 20.5371 9.35441 21.0531 9.87048C21.5692 10.3865 21.8608 11.0854 21.8647 11.8152V25.9027C21.8593 26.1936 21.7404 26.471 21.5333 26.6753C21.3262 26.8797 21.0473 26.995 20.7563 26.9965ZM16.3376 24.809H19.6772V11.8152C19.6772 11.6644 19.6172 11.5197 19.5106 11.413C19.4039 11.3064 19.2593 11.2465 19.1084 11.2465H16.8917C16.7409 11.2465 16.5962 11.3064 16.4896 11.413C16.3829 11.5197 16.323 11.6644 16.323 11.8152V24.809H16.3376Z" fill="#757575"/>
<path d="M26.2834 26.9965H20.7563C20.4669 26.9946 20.1898 26.8787 19.9851 26.674C19.7804 26.4693 19.6645 26.1922 19.6626 25.9028V19.2673C19.6645 18.9778 19.7804 18.7008 19.9851 18.496C20.1898 18.2913 20.4669 18.1755 20.7563 18.1736H24.6209C25.3508 18.1774 26.0496 18.469 26.5657 18.9851C27.0817 19.5012 27.3734 20.2 27.3772 20.9298V25.9028C27.3774 26.0464 27.3492 26.1888 27.2943 26.3215C27.2394 26.4543 27.1589 26.575 27.0573 26.6766C26.9557 26.7782 26.835 26.8587 26.7022 26.9136C26.5694 26.9685 26.4271 26.9967 26.2834 26.9965ZM21.8501 24.809H25.1897V20.9298C25.1897 20.779 25.1298 20.6343 25.0231 20.5277C24.9164 20.421 24.7718 20.3611 24.6209 20.3611H21.8501V24.809Z" fill="#757575"/>
<path d="M22.3751 33.7054H13.6251C5.70633 33.7054 2.323 30.322 2.323 22.4033V13.6533C2.323 5.73453 5.70633 2.3512 13.6251 2.3512H22.3751C30.2938 2.3512 33.6772 5.73453 33.6772 13.6533V22.4033C33.6772 30.322 30.2938 33.7054 22.3751 33.7054ZM13.6251 4.5387C6.90216 4.5387 4.5105 6.93036 4.5105 13.6533V22.4033C4.5105 29.1262 6.90216 31.5179 13.6251 31.5179H22.3751C29.098 31.5179 31.4897 29.1262 31.4897 22.4033V13.6533C31.4897 6.93036 29.098 4.5387 22.3751 4.5387H13.6251Z" fill="#757575"/>
</svg>
