<svg width="36" height="36" viewBox="0 0 36 36" fill="none" xmlns="http://www.w3.org/2000/svg">
<path d="M18 23.4971C16.9184 23.4971 15.8611 23.1763 14.9617 22.5754C14.0624 21.9745 13.3615 21.1204 12.9475 20.1211C12.5336 19.1218 12.4253 18.0223 12.6363 16.9614C12.8473 15.9006 13.3682 14.9262 14.133 14.1613C14.8978 13.3965 15.8723 12.8757 16.9331 12.6647C17.9939 12.4536 19.0935 12.5619 20.0928 12.9759C21.0921 13.3898 21.9462 14.0907 22.5471 14.99C23.148 15.8894 23.4688 16.9467 23.4688 18.0283C23.4684 19.4786 22.8921 20.8694 21.8666 21.8949C20.8411 22.9204 19.4503 23.4967 18 23.4971ZM18 14.7471C17.351 14.7471 16.7166 14.9395 16.177 15.3001C15.6374 15.6606 15.2169 16.1731 14.9685 16.7726C14.7202 17.3722 14.6552 18.032 14.7818 18.6685C14.9084 19.305 15.2209 19.8896 15.6798 20.3485C16.1387 20.8074 16.7234 21.1199 17.3599 21.2465C17.9964 21.3731 18.6561 21.3082 19.2557 21.0598C19.8553 20.8115 20.3677 20.3909 20.7283 19.8513C21.0888 19.3117 21.2813 18.6773 21.2813 18.0283C21.2801 17.1584 20.934 16.3245 20.3189 15.7094C19.7038 15.0943 18.8699 14.7482 18 14.7471Z" fill="#757575"/>
<path d="M22.6813 32.8893C22.3716 32.8865 22.0632 32.8473 21.7626 32.7727C20.8651 32.5316 20.0963 31.9512 19.6188 31.1539L19.4438 30.8623C18.5834 29.3748 17.4022 29.3748 16.5417 30.8623L16.3813 31.1393C16.15 31.5403 15.8414 31.8914 15.4734 32.1722C15.1054 32.4531 14.6854 32.6582 14.2376 32.7756C13.7913 32.899 13.3245 32.9303 12.8657 32.8676C12.4069 32.8049 11.9657 32.6496 11.5688 32.411L9.0605 30.9673C8.17125 30.4564 7.52121 29.6134 7.25322 28.6235C6.98524 27.6336 7.12124 26.5778 7.63133 25.6881C7.82908 25.4303 7.95933 25.1272 8.01027 24.8063C8.0612 24.4855 8.0312 24.1569 7.923 23.8506C7.71288 23.6026 7.44393 23.4113 7.14076 23.2941C6.83759 23.1769 6.50987 23.1376 6.18758 23.1798C5.16272 23.1778 4.18042 22.7696 3.45601 22.0447C2.73159 21.3197 2.32415 20.3371 2.323 19.3123L2.323 16.7456C2.32493 15.7212 2.7327 14.7394 3.45704 14.015C4.18137 13.2907 5.16322 12.8829 6.18758 12.881C6.50962 12.9235 6.83718 12.8847 7.14033 12.768C7.44349 12.6513 7.71257 12.4605 7.923 12.2131C8.03487 11.9073 8.0668 11.578 8.01575 11.2565C7.96471 10.9349 7.83239 10.6317 7.63133 10.3756C7.12323 9.48678 6.98694 8.43319 7.25216 7.44434C7.37894 6.95095 7.60458 6.48843 7.91543 6.08484C8.22627 5.68125 8.61583 5.34498 9.0605 5.09642L11.5834 3.64976C12.3906 3.18328 13.3496 3.05488 14.2511 3.29255C15.1526 3.53022 15.9236 4.11469 16.3959 4.91851L16.5709 5.21017C17.4313 6.69767 18.6126 6.69767 19.473 5.21017L19.6334 4.93309C19.8662 4.53197 20.176 4.1808 20.5449 3.89976C20.9139 3.61873 21.3347 3.41336 21.7833 3.29546C22.2318 3.17756 22.6992 3.14946 23.1587 3.21276C23.6181 3.27607 24.0605 3.42953 24.4605 3.66434L26.9688 5.10809C27.8581 5.61895 28.5081 6.46196 28.7761 7.45186C29.0441 8.44177 28.9081 9.49758 28.398 10.3873C28.2002 10.645 28.07 10.9481 28.0191 11.269C27.9681 11.5899 27.9981 11.9184 28.1063 12.2248C28.3165 12.4727 28.5854 12.6641 28.8886 12.7813C29.1917 12.8985 29.5195 12.9378 29.8417 12.8956C30.8661 12.8975 31.848 13.3053 32.5723 14.0296C33.2966 14.754 33.7044 15.7358 33.7063 16.7602V19.3268C33.7044 20.3512 33.2966 21.3331 32.5723 22.0574C31.848 22.7817 30.8661 23.1895 29.8417 23.1914C29.5195 23.1492 29.1917 23.1885 28.8886 23.3057C28.5854 23.4229 28.3165 23.6143 28.1063 23.8623C27.9945 24.168 27.9625 24.4973 28.0136 24.8189C28.0646 25.1404 28.1969 25.4437 28.398 25.6998C28.6529 26.1386 28.8178 26.6239 28.8829 27.1272C28.948 27.6305 28.912 28.1418 28.7772 28.631C28.6504 29.1244 28.4247 29.5869 28.1139 29.9905C27.8031 30.3941 27.4135 30.7304 26.9688 30.9789L24.4459 32.4227C23.9071 32.7261 23.2997 32.8867 22.6813 32.8893ZM18.0001 27.4935C18.7078 27.5381 19.3907 27.7712 19.9779 28.1686C20.5651 28.5661 21.0353 29.1135 21.3397 29.7539L21.5001 30.031C21.6787 30.3318 21.968 30.5506 22.3061 30.6406C22.6441 30.7306 23.0039 30.6845 23.3084 30.5123L25.8313 29.0539C26.2186 28.8313 26.5018 28.4642 26.6188 28.0331C26.6769 27.8215 26.6927 27.6004 26.6651 27.3827C26.6376 27.165 26.5674 26.9548 26.4584 26.7643C26.0578 26.1793 25.8198 25.4984 25.7685 24.7913C25.7173 24.0841 25.8547 23.376 26.1667 22.7393C26.56 22.1484 27.1039 21.6733 27.7423 21.363C28.3807 21.0528 29.0904 20.9188 29.798 20.9748C30.0186 20.9759 30.2372 20.9333 30.4412 20.8495C30.6452 20.7656 30.8305 20.6421 30.9865 20.4861C31.1424 20.3302 31.2659 20.1448 31.3498 19.9408C31.4337 19.7368 31.4762 19.5182 31.4751 19.2977V16.7339C31.4751 16.2891 31.2984 15.8626 30.9839 15.548C30.6694 15.2335 30.2428 15.0568 29.798 15.0568C29.0904 15.1128 28.3807 14.9788 27.7423 14.6686C27.1039 14.3583 26.56 13.8832 26.1667 13.2923C25.8547 12.6556 25.7173 11.9475 25.7685 11.2403C25.8198 10.5332 26.0578 9.85228 26.4584 9.26726C26.5674 9.07675 26.6376 8.8666 26.6651 8.64888C26.6927 8.43115 26.6769 8.21014 26.6188 7.99851C26.5035 7.5708 26.2263 7.20471 25.8459 6.97767L23.323 5.53392C23.1708 5.44468 23.0025 5.38633 22.8277 5.36221C22.6529 5.3381 22.4751 5.3487 22.3044 5.3934C22.1337 5.4381 21.9736 5.51603 21.833 5.62272C21.6925 5.72942 21.5744 5.86278 21.4855 6.01517L21.3251 6.29226C21.0207 6.93272 20.5505 7.48007 19.9633 7.87754C19.3761 8.27501 18.6932 8.50812 17.9855 8.55267C17.2778 8.50812 16.5949 8.27501 16.0077 7.87754C15.4205 7.48007 14.9503 6.93272 14.6459 6.29226L14.4855 6.00059C14.3043 5.70256 14.0139 5.48702 13.6761 5.39986C13.3384 5.3127 12.98 5.3608 12.6772 5.53392L10.1542 6.99226C9.76697 7.21487 9.48377 7.58198 9.36675 8.01309C9.30865 8.22472 9.29291 8.44574 9.32044 8.66346C9.34797 8.88119 9.41822 9.09133 9.52716 9.28184C9.92775 9.86686 10.1658 10.5477 10.2171 11.2549C10.2683 11.9621 10.1309 12.6702 9.81883 13.3068C9.42562 13.8978 8.88168 14.3729 8.24327 14.6831C7.60486 14.9934 6.89516 15.1274 6.18758 15.0714C5.96727 15.0703 5.7489 15.1128 5.5451 15.1964C5.34129 15.2801 5.15608 15.4034 5.00016 15.559C4.84423 15.7147 4.72068 15.8997 4.63664 16.1033C4.5526 16.307 4.50972 16.5253 4.5105 16.7456V19.3123C4.5105 19.757 4.68719 20.1836 5.0017 20.4981C5.31622 20.8126 5.74279 20.9893 6.18758 20.9893C6.89516 20.9333 7.60486 21.0674 8.24327 21.3776C8.88168 21.6879 9.42562 22.163 9.81883 22.7539C10.1309 23.3906 10.2683 24.0987 10.2171 24.8058C10.1658 25.513 9.92775 26.1939 9.52716 26.7789C9.41822 26.9694 9.34797 27.1796 9.32044 27.3973C9.29291 27.615 9.30865 27.836 9.36675 28.0477C9.4821 28.4754 9.75927 28.8415 10.1397 29.0685L12.6626 30.5123C12.8117 30.6034 12.9778 30.6634 13.1507 30.6884C13.3237 30.7135 13.5 30.7032 13.6688 30.6581C14.017 30.5652 14.3152 30.3403 14.5001 30.031L14.6605 29.7539C14.9673 29.1153 15.4381 28.5696 16.0249 28.1725C16.6116 27.7754 17.2932 27.5411 18.0001 27.4935Z" fill="#757575"/>
</svg>
